PathFileType	4	(X/Y/Z)	TVC_9_BWA2_walk_RCNL2025.trc
DataRate	CameraRate	NumFrames	NumMarkers	Units	OrigDataRate	OrigDataStartFrame	OrigNumFrames
100	100	12	27	mm	100	137	364
Frame#	Time	R_Shoulder			L_Shoulder			C7			J_Notch			R_Elbow			L_Elbow			R_Wrist			L_Wrist			R_Asis			L_Asis			R_Psis			L_Psis			Sacral			Thoracic			Sternum			R_Thigh_Lateral			R_Knee_Lateral			R_Shank_Lateral			R_Ankle_Lateral			R_Heel			R_Toe			L_Thigh_Lateral			L_Knee_Lateral			L_Shank_Lateral			L_Ankle_Lateral			L_Heel			L_Toe		
		X1	Y1	Z1	X2	Y2	Z2	X3	Y3	Z3	X4	Y4	Z4	X5	Y5	Z5	X6	Y6	Z6	X7	Y7	Z7	X8	Y8	Z8	X9	Y9	Z9	X10	Y10	Z10	X11	Y11	Z11	X12	Y12	Z12	X13	Y13	Z13	X14	Y14	Z14	X15	Y15	Z15	X16	Y16	Z16	X17	Y17	Z17	X18	Y18	Z18	X19	Y19	Z19	X20	Y20	Z20	X21	Y21	Z21	X22	Y22	Z22	X23	Y23	Z23	X24	Y24	Z24	X25	Y25	Z25	X26	Y26	Z26	X27	Y27	Z27
137	1.36000000	-1335.185547	1375.735840	207.722763	-1373.531128	1360.795532	-188.386261	-1412.168213	1438.030151	3.077937	-1261.780273	1337.673950	11.361427	-1444.143677	1081.449829	339.184753	-1392.628296	1012.667542	-238.989319	-1353.001709	848.222443	321.862015	-1262.107300	806.642822	-227.742844	-1316.249023	932.625916	194.371643	-1348.006592	928.064697	-110.177368	-1517.699829	958.502747	114.836243	-1529.228149	951.071106	15.845318	-1523.463989	954.786926	65.340780	-1513.841431	1165.428101	45.236534	-1207.324951	1146.744629	16.875357	-1340.476196	527.145203	246.595337	-1343.145020	447.338593	173.006027	-1338.076416	285.570465	204.571472	-1366.514648	64.832245	123.248871	-1422.473267	52.821568	61.630478	-1239.912476	45.415180	82.184700	-1246.535645	596.321106	-179.803101	-1250.843628	467.872192	-132.505554	-1341.429443	362.730469	-176.249313	-1519.957397	227.821121	-97.020088	-1572.919434	246.851059	-39.821560	-1443.985596	106.172569	-68.972191
138	1.37000000	-1326.392090	1375.898193	207.838516	-1365.419312	1361.031250	-188.182007	-1403.575317	1438.350098	3.360865	-1253.349121	1337.723267	11.503125	-1431.517334	1081.834717	341.951080	-1389.514038	1013.019714	-237.548248	-1332.741150	851.799744	323.862732	-1261.897034	805.153778	-226.789619	-1308.811401	932.803406	195.064835	-1339.813354	928.357300	-109.792625	-1510.050903	959.091614	115.029411	-1521.222656	951.514526	16.033152	-1515.636780	955.303070	65.531281	-1505.672485	1165.910645	45.712452	-1199.276489	1146.722412	16.847517	-1337.872925	527.200989	246.947433	-1341.116211	447.355499	173.258926	-1336.981323	285.581635	204.753372	-1366.456421	64.856476	123.247719	-1422.486816	52.968639	61.666958	-1239.986450	45.446449	82.244064	-1231.096436	600.380310	-179.155884	-1231.992188	472.208466	-131.806213	-1319.436035	364.076630	-175.791809	-1494.507080	224.433807	-97.068794	-1548.589478	240.522217	-39.433548	-1413.275391	106.126060	-70.264687
139	1.38000000	-1317.719482	1376.061768	207.894424	-1357.312134	1361.229980	-188.035599	-1395.076416	1438.599243	3.561830	-1244.988403	1337.740479	11.603538	-1418.890137	1082.353027	344.766205	-1386.365967	1013.408630	-236.121506	-1312.641602	855.756378	325.874878	-1261.753479	803.801758	-225.817665	-1301.395996	932.945068	195.692703	-1331.539795	928.679443	-109.416718	-1502.422241	959.593262	115.125298	-1513.223999	951.896667	16.116276	-1507.823120	955.744965	65.620787	-1497.554443	1166.305420	46.085972	-1191.236816	1146.720947	16.854574	-1335.228638	527.237732	247.225540	-1339.058228	447.380554	173.447464	-1335.854736	285.622284	204.912613	-1366.400024	64.887161	123.244247	-1422.511353	53.124809	61.714962	-1240.056519	45.458035	82.268509	-1216.364624	604.300476	-178.505524	-1214.054932	476.448395	-131.072632	-1298.031616	365.213501	-175.274460	-1468.550171	219.848938	-96.770767	-1523.502930	232.829117	-38.628441	-1381.908325	105.332466	-71.191696
140	1.39000000	-1309.172241	1376.216064	207.897247	-1349.205688	1361.383301	-187.940567	-1386.671997	1438.770264	3.686914	-1236.695435	1337.720947	11.671032	-1406.266846	1082.989624	347.618591	-1383.168701	1013.824524	-234.720093	-1292.732971	860.061768	327.883850	-1261.644897	802.567871	-224.818764	-1293.989258	933.043396	196.255951	-1323.165771	929.015381	-109.050507	-1494.803467	959.998779	115.125168	-1505.222534	952.201111	16.097271	-1500.013000	956.099945	65.611219	-1489.483154	1166.601196	46.353828	-1183.198486	1146.729370	16.914427	-1332.408081	527.257019	247.433380	-1336.932373	447.407867	173.575577	-1334.656128	285.680206	205.049683	-1366.338501	64.924019	123.236916	-1422.536377	53.290897	61.769043	-1240.113159	45.438370	82.246613	-1202.430542	607.988403	-177.854218	-1197.056030	480.476929	-130.314987	-1277.300903	366.123169	-174.716187	-1442.103638	214.189407	-96.186157	-1497.642944	223.930603	-37.469685	-1349.962280	103.952400	-71.860794
141	1.40000000	-1300.754028	1376.349854	207.853287	-1341.097778	1361.481323	-187.891144	-1378.360962	1438.855835	3.741897	-1228.467651	1337.659424	11.713477	-1393.654663	1083.728516	350.495636	-1379.904541	1014.255371	-233.355728	-1273.042236	864.682098	329.875153	-1261.534424	801.421173	-223.779877	-1286.578979	933.090332	196.754578	-1314.677856	929.344543	-108.699303	-1487.185303	960.299072	115.030823	-1497.209351	952.411621	15.980138	-1492.197327	956.355347	65.505480	-1481.454224	1166.787354	46.513332	-1175.156494	1146.734131	17.039841	-1329.324829	527.261353	247.576157	-1334.704956	447.431274	173.647720	-1333.352173	285.741608	205.161896	-1366.265747	64.967430	123.223251	-1422.552612	53.469349	61.823856	-1240.149048	45.380688	82.173889	-1189.349121	611.350647	-177.196686	-1181.004761	484.181580	-129.532867	-1257.301270	366.748840	-174.125366	-1415.183105	207.596497	-95.390007	-1471.004883	213.994751	-36.036388	-1317.511230	102.151146	-72.401794
142	1.41000000	-1292.467896	1376.451904	207.768372	-1332.987549	1361.513916	-187.882355	-1370.141846	1438.849854	3.732142	-1220.302124	1337.550171	11.738057	-1381.062378	1084.553345	353.383606	-1376.553223	1014.687683	-232.040726	-1253.594482	869.581573	331.834641	-1261.382080	800.325897	-222.686676	-1279.154541	933.078125	197.188599	-1306.069824	929.641846	-108.371422	-1479.559570	960.485718	114.844337	-1489.176514	952.512268	15.769741	-1484.368042	956.498993	65.307039	-1473.463867	1166.854370	46.562336	-1167.108154	1146.720459	17.238327	-1325.937744	527.251343	247.660645	-1332.348877	447.444702	173.668701	-1331.916748	285.792419	205.243637	-1366.177124	65.018616	123.200005	-1422.553345	53.664295	61.874283	-1240.159912	45.284218	82.053322	-1177.130127	614.300476	-176.521103	-1165.894287	487.457642	-128.719208	-1238.055176	367.011505	-173.506592	-1387.805176	200.226410	-94.472717	-1443.602417	203.200363	-34.431187	-1284.635864	100.092247	-72.943161
143	1.42000000	-1284.315796	1376.510864	207.647629	-1324.875610	1361.471313	-187.910019	-1362.012329	1438.746826	3.662507	-1212.196045	1337.387573	11.751078	-1368.500854	1085.447754	356.267944	-1373.092529	1015.107178	-230.787628	-1234.412537	874.723389	333.748718	-1261.147400	799.248444	-221.529945	-1271.707520	933.000244	197.558594	-1297.342651	929.878662	-108.076599	-1471.919189	960.550659	114.567818	-1481.116577	952.488037	15.471290	-1476.517883	956.519348	65.019554	-1465.508179	1166.794312	46.499245	-1159.053223	1146.673462	17.512318	-1322.237061	527.224182	247.693665	-1329.844360	447.442932	173.643509	-1330.331909	285.819641	205.287827	-1366.069336	65.079758	123.163246	-1422.533813	53.881519	61.915394	-1240.144653	45.154366	81.894539	-1165.736084	616.764221	-175.810928	-1151.700317	490.213165	-127.864006	-1219.544556	366.832947	-172.867737	-1359.989502	192.247116	-93.538223	-1415.472168	191.738190	-32.783867	-1251.429321	97.930771	-73.588966
144	1.43000000	-1276.299316	1376.516724	207.495422	-1316.763672	1361.345337	-187.970917	-1353.970093	1438.542114	3.537248	-1204.146851	1337.166504	11.757792	-1355.982666	1086.396362	359.133301	-1369.498535	1015.499634	-229.608917	-1215.517639	880.070831	335.604431	-1260.789185	798.161682	-220.312347	-1264.232056	932.852295	197.866318	-1288.504639	930.024353	-107.824387	-1464.257935	960.487122	114.203239	-1473.022461	952.325500	15.089868	-1468.640198	956.406311	64.646554	-1457.583374	1166.600952	46.323013	-1150.992798	1146.579712	17.859644	-1318.232666	527.171509	247.680649	-1327.179321	447.421631	173.577133	-1328.588135	285.812683	205.287781	-1365.941162	65.154114	123.108597	-1422.491821	54.128330	61.942368	-1240.105957	45.001373	81.711807	-1155.088989	618.686707	-175.048279	-1138.381592	492.373962	-126.957947	-1201.707642	366.157166	-172.225098	-1331.762207	183.835876	-92.699051	-1386.677734	179.810547	-31.248539	-1217.996948	95.807747	-74.401657
145	1.44000000	-1268.419189	1376.460693	207.315216	-1308.653687	1361.129517	-188.062714	-1346.012451	1438.232910	3.359944	-1196.151611	1336.882812	11.762233	-1343.521362	1087.384888	361.963715	-1365.747192	1015.851562	-228.516647	-1196.929810	885.588104	337.389587	-1260.266724	797.048615	-219.050957	-1256.724609	932.632629	198.115051	-1279.569824	930.048340	-107.622559	-1456.570312	960.289307	113.752281	-1464.887817	952.013428	14.630063	-1460.729065	956.151367	64.191172	-1449.685669	1166.270020	46.033199	-1142.929443	1146.428345	18.274202	-1313.949829	527.080688	247.625641	-1324.349121	447.377808	173.474518	-1326.685913	285.764221	205.239380	-1365.793335	65.246033	123.031593	-1422.427490	54.413357	61.950474	-1240.049561	44.837460	81.520729	-1145.085449	620.032593	-174.218521	-1125.881348	493.888092	-125.995361	-1184.438599	364.964478	-171.604874	-1303.159790	175.176773	-92.068398	-1357.311157	167.628723	-29.993649	-1184.455688	93.847099	-75.395210
146	1.45000000	-1260.675537	1376.335693	207.109482	-1300.547607	1360.819824	-188.184143	-1338.136597	1437.817139	3.133405	-1188.207642	1336.533691	11.767072	-1331.131592	1088.400269	364.743011	-1361.814331	1016.150879	-227.522171	-1178.667542	891.240906	339.092712	-1259.544617	795.901581	-217.775414	-1249.184082	932.342529	198.309662	-1270.557129	929.922302	-107.476074	-1448.851440	959.953064	113.216232	-1456.706909	951.543274	14.095687	-1452.779175	955.748169	63.655960	-1441.811157	1165.799683	45.630005	-1134.866455	1146.211426	18.746746	-1309.428955	526.936829	247.532578	-1321.356079	447.310028	173.340637	-1324.636597	285.670929	205.142883	-1365.628418	65.360916	122.928276	-1422.342163	54.746262	61.935204	-1239.982422	44.673424	81.334534	-1135.614868	620.784241	-173.315094	-1114.132446	494.729370	-124.976509	-1167.590820	363.276459	-171.040161	-1274.233765	166.457169	-91.750488	-1327.491699	155.408386	-29.186123	-1150.933472	92.154480	-76.540619
147	1.46000000	-1253.067749	1376.136963	206.879669	-1292.447144	1360.414795	-188.334961	-1330.339355	1437.294678	2.859612	-1180.311768	1336.117920	11.773520	-1318.828369	1089.430908	367.454895	-1357.677246	1016.387085	-226.635895	-1160.748169	896.997131	340.703003	-1258.598083	794.719055	-216.524025	-1241.610840	931.986694	198.456467	-1261.485840	929.623474	-107.386688	-1441.096802	959.476257	112.595932	-1448.474487	950.909546	13.489618	-1444.785645	955.192902	63.042775	-1433.955933	1165.190308	45.114315	-1126.807129	1145.925171	19.265671	-1304.725220	526.726135	247.406952	-1318.207642	447.218628	173.180603	-1322.463623	285.534454	205.004578	-1365.450562	65.505119	122.795853	-1422.238647	55.137363	61.892609	-1239.912476	44.516544	81.161972	-1126.576416	620.937134	-172.343246	-1103.061157	494.899200	-123.908676	-1150.986572	361.152496	-170.565063	-1245.056030	157.862915	-91.830910	-1297.363159	143.362900	-28.972488	-1117.570435	90.816360	-77.781044
148	1.47000000	-1245.594604	1375.862183	206.626190	-1284.353271	1359.915527	-188.515930	-1322.617188	1436.666870	2.539689	-1172.460693	1335.635864	11.781272	-1306.626953	1090.466675	370.083344	-1353.315063	1016.552063	-225.867157	-1143.187927	902.827087	342.210068	-1257.411926	793.499054	-215.337593	-1234.006958	931.572815	198.562790	-1252.371826	929.137024	-107.353172	-1433.302124	958.858765	111.891830	-1440.185913	950.110352	12.813747	-1436.744019	954.484558	62.352789	-1426.115479	1164.445068	44.487778	-1118.754883	1145.569092	19.817764	-1299.904297	526.440430	247.256439	-1314.915283	447.105865	172.999908	-1320.200073	285.362091	204.836914	-1365.264404	65.685860	122.633598	-1422.119751	55.597286	61.819973	-1239.846802	44.370060	81.007248	-1117.889038	620.494873	-171.322510	-1092.593628	494.426270	-122.806091	-1134.436768	358.681305	-170.208160	-1215.724243	149.571930	-92.368561	-1267.089233	131.695526	-29.461029	-1084.520264	89.899437	-79.049881
